<?xml version="1.0" encoding="utf-8"?>
<!-- Generator: Adobe Illustrator 19.2.0, SVG Export Plug-In . SVG Version: 6.00 Build 0)  -->
<svg version="1.1" id="Layer_1" xmlns="http://www.w3.org/2000/svg" xmlns:xlink="http://www.w3.org/1999/xlink" x="0px" y="0px"
	 viewBox="0 0 256 256" style="enable-background:new 0 0 256 256;" xml:space="preserve">
<style type="text/css">
	.st0{fill:#3D3D3D;}
</style>
<g>
	<path class="st0" d="M194.5,90.8c-0.8,0-1.6,0-2.4,0.1c-1.6-18.6-17.2-33.2-36.2-33.2c-3.5,0-7,0.5-10.4,1.5
		C133.7,44.5,115.9,35.9,97,35.9c-34.2,0-62.1,27.9-62.1,62.1c0,4.8,0.6,9.7,1.7,14.3C21,118.6,10.5,133.9,10.5,151
		c0,10,3.6,19.7,10.2,27.3c6.4,7.4,15.2,12.3,24.9,13.9c2.1,0.6,4.3,0.9,6.5,0.9h14.8v-9.9H52c-1.4,0-2.7-0.2-4-0.6
		c-0.2-0.1-0.5-0.1-0.7-0.2c-15.4-2.3-27-15.9-27-31.5c0-14.4,9.7-27,23.5-30.7c1.3-0.4,2.4-1.2,3-2.4c0.6-1.2,0.8-2.6,0.4-3.9
		c-1.7-5.2-2.5-10.6-2.5-16c0-28.8,23.4-52.2,52.2-52.2c16.9,0,32.9,8.3,42.7,22.2c1.3,1.9,3.8,2.6,5.9,1.7c3.2-1.4,6.7-2,10.2-2
		c14.6,0,26.5,11.9,26.5,26.5c0,0.6,0,1.2-0.1,1.9c-0.1,1.5,0.5,3,1.6,4c1.1,1,2.6,1.5,4.1,1.2c2.2-0.3,4.3-0.5,6.5-0.5
		c22.7,0,41.2,18.5,41.2,41.2c0,22.7-18.5,41.2-41.2,41.2c-0.2,0-0.3,0-0.5,0l-0.4,0c-0.2,0-0.5,0-0.7,0c-0.6,0.1-1.2,0.1-1.8,0.1
		h-4.2v9.9h4.2c0.9,0,1.7-0.1,2.7-0.2c0.3,0,0.5,0,0.8,0c28.2,0,51.1-22.9,51.1-51.1C245.5,113.7,222.6,90.8,194.5,90.8z"/>
</g>
<path class="st0" d="M152.1,168l-29.9,36.5c-0.5,0.6-12.2,13.3-25.6,2.3c-13.1-10.8-2.7-23.1-1.5-24.5l49.3-60.1
	c0.9-1.1,9.1-10.4,17.5-3.5c8.4,6.9,0.7,15.6-0.2,16.7l-44.6,54.3c-1.6,2-4.3,3.7-7,0.8c-1.6-1.8-1.4-3.7-0.6-4.9l26.2-31.9
	l-7.1-5.8l-25.2,30.7c-3.2,3.9-6.4,13.1,0.8,19c7,5.8,15.5,2,18.7-1.9l44.6-54.3c4.7-5.7,11.5-20.2,0-29.7
	c-11.5-9.4-24.5-1-29.2,4.7l-49.4,60.1c-5.8,7-13.7,24.9,1.6,37.5c15.3,12.6,32.7,3.5,38.5-3.5l30-36.5L152.1,168z"/>
</svg>
