<?xml version="1.0" encoding="UTF-8"?>
<svg width="256px" height="256px" viewBox="0 0 256 256" version="1.1" xmlns="http://www.w3.org/2000/svg" xmlns:xlink="http://www.w3.org/1999/xlink">
    <!-- Generator: Sketch 48.1 (47250) - http://www.bohemiancoding.com/sketch -->
    <title>logo</title>
    <desc>Created with Sketch.</desc>
    <defs></defs>
    <g id="Page-1" stroke="none" stroke-width="1" fill="none" fill-rule="evenodd">
        <g id="logo" fill="#000000" fill-rule="nonzero">
            <path d="M228,124.8125 L210.5,124.8125 C187.6875,109.1875 173.3125,83.5625 171.75,55.75 L180.5,40.125 L175.5,37 L166.75,52.625 C142.375,65.125 113.625,65.125 89.25,52.625 L80.5,37 L75.5,40.125 L84.25,55.75 C82.6875,83.5625 68.3125,109.5 45.5,124.8125 L28,124.8125 L28,130.75 L45.5,130.75 C68.3125,146.0625 82.6875,172 84.25,199.8125 L75.5,215.4375 L80.5,218.5625 L89.25,202.9375 C113.625,190.4375 142.375,190.4375 166.75,202.9375 L175.5,218.5625 L180.5,215.4375 L171.75,199.8125 C173.3125,172 187.6875,146.0625 210.5,130.75 L228,130.75 L228,124.8125 M200.8125,124.8125 L183.625,124.8125 C168.9375,114.8125 159.25,97.9375 158.3125,79.8125 L167.0625,64.5 C170.1875,88.25 182.375,109.8125 200.8125,124.8125 M128,121.6875 L120.8125,108.875 C123,109.5 125.5,109.8125 128,109.8125 C130.5,109.8125 133,109.5 135.1875,108.875 L128,121.6875 M140.1875,112 C141.75,116.6875 144.25,121.0625 147.375,124.8125 L133,124.8125 L140.1875,112 M123,124.8125 L108.625,124.8125 C111.75,121.0625 114.25,116.6875 115.8125,112 L123,124.8125 M123,130.75 L115.8125,143.5625 C114.25,138.875 111.75,134.5 108.625,130.75 L123,130.75 M128,133.5625 L135.1875,146.375 C130.5,145.4375 125.5,145.4375 120.8125,146.375 L128,133.5625 M133,130.75 L147.375,130.75 C144.25,134.5 141.75,138.875 140.1875,143.5625 L133,130.75 M156.125,124.8125 C149.5625,120.125 145.1875,112.625 144.5625,104.1875 L153.625,88.25 C156.125,102.3125 163.3125,115.4375 173.9375,124.8125 L156.125,124.8125 M139.5625,101.0625 C132.375,104.8125 123.625,104.8125 116.4375,101.0625 L107.6875,85.125 C114.25,87.625 121.125,88.5625 128,88.5625 C134.875,88.5625 141.75,87.3125 148.3125,85.125 L139.5625,101.0625 M111.4375,103.875 C110.8125,112.3125 106.75,119.8125 99.875,124.5 L82.0625,124.5 C92.6875,115.125 99.875,102.3125 102.375,87.9375 L111.4375,103.875 M99.875,130.75 C106.4375,135.4375 110.8125,142.9375 111.4375,151.375 L102.375,167.3125 C99.875,153.25 92.6875,140.125 82.0625,130.75 L99.875,130.75 M116.4375,154.1875 C123.625,150.4375 132.375,150.4375 139.5625,154.1875 L148.625,170.125 C135.5,165.4375 120.8125,165.4375 107.6875,170.125 L116.4375,154.1875 M144.5625,151.375 C145.1875,142.9375 149.25,135.4375 156.125,130.75 L173.9375,130.75 C163.3125,140.125 156.125,152.9375 153.625,167.3125 L144.5625,151.375 M128,67.9375 C139.5625,67.9375 151.125,65.75 161.75,61.375 L153,76.6875 C137.0625,84.8125 118.3125,84.8125 102.6875,76.6875 L93.9375,61.375 C104.875,65.75 116.4375,67.9375 128,67.9375 M89.25,64.5 L98,79.8125 C96.75,97.9375 87.375,114.8125 72.6875,124.8125 L55.1875,124.8125 C73.625,109.8125 85.8125,88.25 89.25,64.5 M55.5,130.75 L72.6875,130.75 C87.375,140.75 96.75,157.3125 97.6875,175.75 L88.9375,191.0625 C85.8125,167.3125 73.625,145.4375 55.5,130.75 M94.25,193.875 L103,178.5625 C118.9375,170.4375 137.6875,170.4375 153.3125,178.5625 L162.0625,193.875 C140.1875,185.125 115.8125,185.125 94.25,193.875 M166.75,191.0625 L158.3125,175.75 C159.25,157.625 168.625,140.75 183.625,130.75 L200.8125,130.75 C182.375,145.4375 170.1875,167.3125 166.75,191.0625" id="Shape"></path>
        </g>
    </g>
</svg>